<svg data-v-423bf9ae="" xmlns="http://www.w3.org/2000/svg" viewBox="0 0 187.0872552926491 60" class="font"><!----><!----><defs data-v-423bf9ae=""><linearGradient data-v-423bf9ae="" gradientTransform="rotate(25)" id="e02ab29f-13d2-4b98-b2f5-107e020bca46" x1="0%" y1="0%" x2="100%" y2="0%"><stop data-v-423bf9ae="" offset="0%" style="stop-color: rgb(18, 38, 99); stop-opacity: 1;"></stop><stop data-v-423bf9ae="" offset="100%" style="stop-color: rgb(93, 215, 173); stop-opacity: 1;"></stop></linearGradient></defs><g data-v-423bf9ae="" id="44676d43-7daa-4b2d-b412-7370bd2bf3f7" fill="url(#e02ab29f-13d2-4b98-b2f5-107e020bca46)" transform="matrix(5.823828757964835,0,0,5.823828757964835,-3.0089806290241796,-21.548165966915946)"><path d="M6.08 8.54L6.08 8.54L6.08 8.54Q6.02 8.59 5.96 8.63L5.96 8.63L5.96 8.63Q5.90 8.68 5.88 8.76L5.88 8.76L5.88 8.76Q5.87 8.83 5.84 8.92L5.84 8.92L5.84 8.92Q5.81 9.02 5.71 9.05L5.71 9.05L5.71 9.05Q5.67 9.06 5.47 9.08L5.47 9.08L5.47 9.08Q5.27 9.10 5.01 9.12L5.01 9.12L5.01 9.12Q4.75 9.14 4.47 9.15L4.47 9.15L4.47 9.15Q4.18 9.17 3.96 9.16L3.96 9.16L3.96 9.16Q3.79 9.16 3.53 9.17L3.53 9.17L3.53 9.17Q3.32 9.19 2.99 9.21L2.99 9.21L2.99 9.21Q2.67 9.24 2.23 9.29L2.23 9.29L2.23 9.29Q2.21 9.68 2.20 10.10L2.20 10.10L2.20 10.10Q2.19 10.52 2.19 10.93L2.19 10.93L2.19 10.93Q2.18 11.34 2.18 11.71L2.18 11.71L2.18 11.71Q2.18 12.09 2.18 12.37L2.18 12.37L2.18 13.01L2.18 13.01Q2.19 13.14 2.14 13.29L2.14 13.29L2.14 13.29Q2.09 13.45 1.98 13.49L1.98 13.49L1.98 13.49Q1.87 13.52 1.79 13.56L1.79 13.56L1.79 13.56Q1.72 13.60 1.64 13.61L1.64 13.61L1.64 13.61Q1.60 13.62 1.53 13.62L1.53 13.62L1.53 13.62Q1.46 13.62 1.38 13.60L1.38 13.60L1.38 13.60Q1.31 13.59 1.25 13.55L1.25 13.55L1.25 13.55Q1.20 13.51 1.18 13.43L1.18 13.43L1.18 13.43Q1.15 13.35 1.12 13.27L1.12 13.27L1.12 13.27Q1.09 13.19 1.06 13.04L1.06 13.04L1.06 13.04Q1.03 12.89 1.00 12.62L1.00 12.62L1.00 12.62Q0.98 12.35 0.96 11.91L0.96 11.91L0.96 11.91Q0.95 11.55 0.97 11.01L0.97 11.01L0.97 11.01Q1.00 10.47 1.04 9.86L1.04 9.86L1.04 9.86Q1.09 9.24 1.15 8.60L1.15 8.60L1.15 8.60Q1.20 7.96 1.26 7.41L1.26 7.41L1.26 7.41Q1.31 6.86 1.35 6.44L1.35 6.44L1.35 6.44Q1.39 6.02 1.42 5.84L1.42 5.84L1.42 5.84Q1.43 5.71 1.44 5.56L1.44 5.56L1.44 5.56Q1.46 5.44 1.47 5.30L1.47 5.30L1.47 5.30Q1.48 5.15 1.50 5.02L1.50 5.02L1.50 5.02Q1.37 5.02 1.25 5.02L1.25 5.02L1.25 5.02Q1.12 5.02 1.08 5.00L1.08 5.00L1.08 5.00Q0.98 4.99 0.88 4.95L0.88 4.95L0.88 4.95Q0.79 4.91 0.71 4.86L0.71 4.86L0.71 4.86Q0.64 4.81 0.58 4.75L0.58 4.75L0.58 4.75Q0.53 4.70 0.52 4.64L0.52 4.64L0.52 4.64Q0.51 4.60 0.53 4.57L0.53 4.57L0.53 4.57Q0.54 4.53 0.57 4.51L0.57 4.51L0.57 4.51Q0.59 4.48 0.66 4.47L0.66 4.47L0.66 4.47Q0.62 4.35 0.64 4.31L0.64 4.31L0.64 4.31Q0.65 4.28 0.67 4.27L0.67 4.27L0.67 4.27Q0.71 4.26 0.78 4.23L0.78 4.23L0.78 4.23Q0.85 4.21 0.90 4.18L0.90 4.18L0.90 4.18Q0.91 4.16 0.95 4.13L0.95 4.13L0.95 4.13Q1.00 4.10 1.05 4.08L1.05 4.08L1.05 4.08Q1.09 4.05 1.14 4.03L1.14 4.03L1.14 4.03Q1.18 4.01 1.20 4.01L1.20 4.01L1.20 4.01Q1.22 4.00 1.34 3.98L1.34 3.98L1.34 3.98Q1.47 3.95 1.66 3.92L1.66 3.92L1.66 3.92Q1.85 3.89 2.07 3.86L2.07 3.86L2.07 3.86Q2.29 3.82 2.50 3.80L2.50 3.80L2.50 3.80Q2.64 3.79 2.98 3.77L2.98 3.77L2.98 3.77Q3.33 3.75 3.77 3.74L3.77 3.74L3.77 3.74Q4.22 3.72 4.70 3.71L4.70 3.71L4.70 3.71Q5.19 3.70 5.61 3.70L5.61 3.70L5.61 3.70Q5.98 3.70 6.25 3.71L6.25 3.71L6.25 3.71Q6.53 3.72 6.64 3.75L6.64 3.75L6.64 3.75Q6.80 3.78 6.90 3.82L6.90 3.82L6.90 3.82Q7 3.86 7.05 3.89L7.05 3.89L7.05 3.89Q7.11 3.92 7.13 3.95L7.13 3.95L7.13 3.95Q7.14 3.99 7.14 3.99L7.14 3.99L7.14 3.99Q7.14 4.01 7.13 4.03L7.13 4.03L7.13 4.03Q7.12 4.07 7.10 4.09L7.10 4.09L7.10 4.09Q7.16 4.14 7.18 4.18L7.18 4.18L7.18 4.18Q7.18 4.20 7.18 4.22L7.18 4.22L7.18 4.22Q7.18 4.25 7.16 4.31L7.16 4.31L7.16 4.31Q7.14 4.37 7.13 4.44L7.13 4.44L7.13 4.44Q7.12 4.51 7.11 4.58L7.11 4.58L7.11 4.58Q7.10 4.66 7.11 4.70L7.11 4.70L7.11 4.70Q7.13 4.78 7.14 4.83L7.14 4.83L7.14 4.83Q7.14 4.89 7.11 4.92L7.11 4.92L7.11 4.92Q7.10 4.94 7.07 4.94L7.07 4.94L7.07 4.94Q7.03 4.94 6.95 4.92L6.95 4.92L6.95 4.92Q6.95 4.94 6.90 4.96L6.90 4.96L6.90 4.96Q6.87 4.96 6.84 4.96L6.84 4.96L6.84 4.96Q6.81 4.96 6.62 4.95L6.62 4.95L6.62 4.95Q6.43 4.94 6.13 4.93L6.13 4.93L6.13 4.93Q5.84 4.91 5.48 4.90L5.48 4.90L5.48 4.90Q5.11 4.89 4.74 4.89L4.74 4.89L4.74 4.89Q4.50 4.89 4.27 4.90L4.27 4.90L4.27 4.90Q4.03 4.91 3.82 4.92L3.82 4.92L3.82 4.92Q3.49 4.94 3.14 4.96L3.14 4.96L3.14 4.96Q2.79 4.98 2.46 4.99L2.46 4.99L2.46 4.99Q2.39 6.05 2.34 6.83L2.34 6.83L2.34 6.83Q2.30 7.61 2.28 8.09L2.28 8.09L2.28 8.09Q2.66 8.02 2.98 7.98L2.98 7.98L2.98 7.98Q3.30 7.94 3.54 7.92L3.54 7.92L3.54 7.92Q3.81 7.89 4.05 7.88L4.05 7.88L4.05 7.88Q4.35 7.87 4.62 7.88L4.62 7.88L4.62 7.88Q4.89 7.88 5.12 7.90L5.12 7.90L5.12 7.90Q5.34 7.91 5.50 7.93L5.50 7.93L5.50 7.93Q5.66 7.95 5.73 7.97L5.73 7.97L5.73 7.97Q5.85 8.00 5.91 8.07L5.91 8.07L5.91 8.07Q5.97 8.13 6.02 8.24L6.02 8.24L6.02 8.24Q6.06 8.34 6.09 8.43L6.09 8.43L6.09 8.43Q6.12 8.51 6.08 8.54ZM8.75 4.38L8.75 4.38L8.75 4.38Q8.75 4.47 8.74 4.75L8.74 4.75L8.74 4.75Q8.72 5.03 8.70 5.42L8.70 5.42L8.70 5.42Q8.68 5.82 8.66 6.29L8.66 6.29L8.66 6.29Q8.63 6.75 8.61 7.22L8.61 7.22L8.61 7.22Q8.58 7.69 8.56 8.13L8.56 8.13L8.56 8.13Q8.54 8.57 8.53 8.89L8.53 8.89L8.53 8.89Q8.52 9.09 8.51 9.33L8.51 9.33L8.51 9.33Q8.51 9.57 8.51 9.84L8.51 9.84L8.51 9.84Q8.51 10.21 8.51 10.60L8.51 10.60L8.51 10.60Q8.52 10.99 8.52 11.38L8.52 11.38L8.52 11.38Q8.53 11.76 8.54 12.11L8.54 12.11L8.54 12.11Q8.55 12.46 8.56 12.74L8.56 12.74L8.56 12.74Q8.57 13.02 8.57 13.21L8.57 13.21L8.57 13.21Q8.57 13.40 8.57 13.45L8.57 13.45L8.57 13.45Q8.57 13.54 8.54 13.59L8.54 13.59L8.54 13.59Q8.51 13.64 8.47 13.66L8.47 13.66L8.47 13.66Q8.42 13.68 8.37 13.67L8.37 13.67L8.37 13.67Q8.33 13.66 8.29 13.64L8.29 13.64L8.29 13.64Q8.25 13.62 8.23 13.59L8.23 13.59L8.23 13.59Q8.20 13.56 8.19 13.55L8.19 13.55L8.19 13.55Q8.18 13.54 8.17 13.54L8.17 13.54L8.17 13.54Q8.16 13.55 8.15 13.60L8.15 13.60L8.15 13.60Q8.13 13.77 8.07 13.86L8.07 13.86L8.07 13.86Q8.01 13.95 7.95 13.98L7.95 13.98L7.95 13.98Q7.88 14.01 7.83 14L7.83 14L7.83 14Q7.77 13.99 7.76 13.95L7.76 13.95L7.76 13.95Q7.75 13.92 7.71 13.91L7.71 13.91L7.71 13.91Q7.68 13.90 7.65 13.90L7.65 13.90L7.65 13.90Q7.62 13.90 7.58 13.88L7.58 13.88L7.58 13.88Q7.55 13.86 7.55 13.81L7.55 13.81L7.55 13.81Q7.49 13.58 7.48 13.22L7.48 13.22L7.48 13.22Q7.46 12.86 7.46 12.41L7.46 12.41L7.46 12.41Q7.46 12.02 7.47 11.57L7.47 11.57L7.47 11.57Q7.48 11.12 7.48 10.64L7.48 10.64L7.48 10.64Q7.48 10.37 7.48 10.10L7.48 10.10L7.48 10.10Q7.48 9.83 7.46 9.55L7.46 9.55L7.46 9.12L7.46 9.12Q7.46 8.57 7.49 8.01L7.49 8.01L7.49 8.01Q7.52 7.45 7.56 6.94L7.56 6.94L7.56 6.94Q7.60 6.43 7.65 5.97L7.65 5.97L7.65 5.97Q7.70 5.52 7.73 5.17L7.73 5.17L7.73 5.17Q7.77 4.83 7.79 4.61L7.79 4.61L7.79 4.61Q7.81 4.39 7.80 4.33L7.80 4.33L7.80 4.33Q7.79 4.29 7.81 4.27L7.81 4.27L7.81 4.27Q7.83 4.25 7.86 4.24L7.86 4.24L7.86 4.24Q7.89 4.24 7.92 4.23L7.92 4.23L7.92 4.23Q7.96 4.23 7.98 4.22L7.98 4.22L7.98 4.22Q8.03 4.19 8.06 4.20L8.06 4.20L8.06 4.20Q8.09 4.21 8.11 4.23L8.11 4.23L8.11 4.23Q8.13 4.25 8.15 4.28L8.15 4.28L8.15 4.28Q8.17 4.30 8.20 4.30L8.20 4.30L8.20 4.30Q8.24 4.29 8.27 4.28L8.27 4.28L8.27 4.28Q8.29 4.26 8.31 4.24L8.31 4.24L8.31 4.24Q8.33 4.22 8.34 4.21L8.34 4.21L8.34 4.21Q8.36 4.20 8.39 4.20L8.39 4.20L8.39 4.20Q8.44 4.22 8.49 4.22L8.49 4.22L8.49 4.22Q8.54 4.22 8.54 4.20L8.54 4.20L8.54 4.20Q8.56 4.15 8.59 4.15L8.59 4.15L8.59 4.15Q8.61 4.16 8.65 4.19L8.65 4.19L8.65 4.19Q8.70 4.22 8.72 4.26L8.72 4.26L8.72 4.26Q8.75 4.30 8.75 4.38ZM14.23 11.01L14.23 11.01L14.23 11.01Q14.23 11.08 14.23 11.18L14.23 11.18L14.23 11.18Q14.24 11.29 14.24 11.42L14.24 11.42L14.24 11.42Q14.24 11.58 14.19 11.82L14.19 11.82L14.19 11.82Q14.14 12.07 14.04 12.33L14.04 12.33L14.04 12.33Q13.93 12.60 13.75 12.87L13.75 12.87L13.75 12.87Q13.58 13.13 13.32 13.34L13.32 13.34L13.32 13.34Q13.06 13.56 12.70 13.69L12.70 13.69L12.70 13.69Q12.35 13.82 11.90 13.82L11.90 13.82L11.90 13.82Q11.50 13.82 11.08 13.67L11.08 13.67L11.08 13.67Q10.66 13.51 10.31 13.19L10.31 13.19L10.31 13.19Q9.97 12.87 9.74 12.36L9.74 12.36L9.74 12.36Q9.52 11.86 9.52 11.16L9.52 11.16L9.52 11.16Q9.52 10.73 9.64 10.30L9.64 10.30L9.64 10.30Q9.75 9.88 9.94 9.50L9.94 9.50L9.94 9.50Q10.12 9.13 10.38 8.81L10.38 8.81L10.38 8.81Q10.64 8.49 10.92 8.26L10.92 8.26L10.92 8.26Q11.20 8.03 11.51 7.90L11.51 7.90L11.51 7.90Q11.81 7.77 12.10 7.77L12.10 7.77L12.10 7.77Q12.60 7.77 12.92 7.93L12.92 7.93L12.92 7.93Q13.25 8.09 13.44 8.32L13.44 8.32L13.44 8.32Q13.63 8.55 13.71 8.81L13.71 8.81L13.71 8.81Q13.79 9.08 13.79 9.29L13.79 9.29L13.79 9.29Q13.79 9.50 13.69 9.76L13.69 9.76L13.69 9.76Q13.59 10.02 13.36 10.26L13.36 10.26L13.36 10.26Q13.14 10.49 12.78 10.65L12.78 10.65L12.78 10.65Q12.41 10.81 11.89 10.81L11.89 10.81L11.89 10.81Q11.61 10.81 11.39 10.74L11.39 10.74L11.39 10.74Q11.16 10.66 10.99 10.54L10.99 10.54L10.99 10.54Q10.82 10.42 10.70 10.28L10.70 10.28L10.70 10.28Q10.58 10.14 10.50 10.01L10.50 10.01L10.50 10.01Q10.38 10.44 10.38 11.01L10.38 11.01L10.38 11.01Q10.38 11.40 10.49 11.71L10.49 11.71L10.49 11.71Q10.60 12.02 10.80 12.24L10.80 12.24L10.80 12.24Q11.00 12.46 11.27 12.57L11.27 12.57L11.27 12.57Q11.55 12.69 11.87 12.69L11.87 12.69L11.87 12.69Q12.28 12.69 12.59 12.55L12.59 12.55L12.59 12.55Q12.90 12.41 13.13 12.20L13.13 12.20L13.13 12.20Q13.36 11.98 13.52 11.73L13.52 11.73L13.52 11.73Q13.69 11.48 13.82 11.28L13.82 11.28L13.82 11.28Q13.94 11.07 14.03 10.93L14.03 10.93L14.03 10.93Q14.12 10.79 14.21 10.80L14.21 10.80L14.21 10.80Q14.25 10.80 14.25 10.87L14.25 10.87L14.25 10.87Q14.25 10.90 14.25 10.94L14.25 10.94L14.25 10.94Q14.24 10.97 14.23 11.01ZM12.17 8.46L12.17 8.46L12.17 8.46Q12.04 8.46 11.85 8.51L11.85 8.51L11.85 8.51Q11.66 8.57 11.44 8.70L11.44 8.70L11.44 8.70Q11.22 8.83 11.01 9.05L11.01 9.05L11.01 9.05Q10.80 9.27 10.64 9.61L10.64 9.61L10.64 9.61Q10.74 9.56 10.81 9.53L10.81 9.53L10.81 9.53Q10.88 9.50 10.91 9.50L10.91 9.50L10.91 9.50Q10.92 9.50 10.95 9.52L10.95 9.52L10.95 9.52Q11.11 9.79 11.34 9.90L11.34 9.90L11.34 9.90Q11.58 10.01 11.87 10.01L11.87 10.01L11.87 10.01Q12.11 10.01 12.27 9.94L12.27 9.94L12.27 9.94Q12.44 9.86 12.55 9.73L12.55 9.73L12.55 9.73Q12.66 9.61 12.71 9.46L12.71 9.46L12.71 9.46Q12.76 9.32 12.76 9.17L12.76 9.17L12.76 9.17Q12.76 8.87 12.60 8.66L12.60 8.66L12.60 8.66Q12.44 8.46 12.17 8.46ZM19.61 11.01L19.61 11.01L19.61 11.01Q19.61 11.08 19.62 11.18L19.62 11.18L19.62 11.18Q19.63 11.29 19.63 11.42L19.63 11.42L19.63 11.42Q19.63 11.58 19.58 11.82L19.58 11.82L19.58 11.82Q19.53 12.07 19.42 12.33L19.42 12.33L19.42 12.33Q19.32 12.60 19.14 12.87L19.14 12.87L19.14 12.87Q18.96 13.13 18.70 13.34L18.70 13.34L18.70 13.34Q18.44 13.56 18.09 13.69L18.09 13.69L18.09 13.69Q17.74 13.82 17.29 13.82L17.29 13.82L17.29 13.82Q16.88 13.82 16.46 13.67L16.46 13.67L16.46 13.67Q16.04 13.51 15.70 13.19L15.70 13.19L15.70 13.19Q15.35 12.87 15.13 12.36L15.13 12.36L15.13 12.36Q14.91 11.86 14.91 11.16L14.91 11.16L14.91 11.16Q14.91 10.73 15.02 10.30L15.02 10.30L15.02 10.30Q15.13 9.88 15.32 9.50L15.32 9.50L15.32 9.50Q15.51 9.13 15.77 8.81L15.77 8.81L15.77 8.81Q16.02 8.49 16.31 8.26L16.31 8.26L16.31 8.26Q16.59 8.03 16.90 7.90L16.90 7.90L16.90 7.90Q17.20 7.77 17.49 7.77L17.49 7.77L17.49 7.77Q17.99 7.77 18.31 7.93L18.31 7.93L18.31 7.93Q18.63 8.09 18.83 8.32L18.83 8.32L18.83 8.32Q19.02 8.55 19.10 8.81L19.10 8.81L19.10 8.81Q19.17 9.08 19.17 9.29L19.17 9.29L19.17 9.29Q19.17 9.50 19.08 9.76L19.08 9.76L19.08 9.76Q18.98 10.02 18.75 10.26L18.75 10.26L18.75 10.26Q18.53 10.49 18.16 10.65L18.16 10.65L18.16 10.65Q17.80 10.81 17.27 10.81L17.27 10.81L17.27 10.81Q16.99 10.81 16.77 10.74L16.77 10.74L16.77 10.74Q16.55 10.66 16.38 10.54L16.38 10.54L16.38 10.54Q16.21 10.42 16.09 10.28L16.09 10.28L16.09 10.28Q15.97 10.14 15.89 10.01L15.89 10.01L15.89 10.01Q15.76 10.44 15.76 11.01L15.76 11.01L15.76 11.01Q15.76 11.40 15.88 11.71L15.88 11.71L15.88 11.71Q15.99 12.02 16.19 12.24L16.19 12.24L16.19 12.24Q16.39 12.46 16.66 12.57L16.66 12.57L16.66 12.57Q16.93 12.69 17.26 12.69L17.26 12.69L17.26 12.69Q17.67 12.69 17.98 12.55L17.98 12.55L17.98 12.55Q18.29 12.41 18.52 12.20L18.52 12.20L18.52 12.20Q18.74 11.98 18.91 11.73L18.91 11.73L18.91 11.73Q19.08 11.48 19.20 11.28L19.20 11.28L19.20 11.28Q19.33 11.07 19.42 10.93L19.42 10.93L19.42 10.93Q19.51 10.79 19.60 10.80L19.60 10.80L19.60 10.80Q19.64 10.80 19.64 10.87L19.64 10.87L19.64 10.87Q19.64 10.90 19.63 10.94L19.63 10.94L19.63 10.94Q19.63 10.97 19.61 11.01ZM17.55 8.46L17.55 8.46L17.55 8.46Q17.43 8.46 17.24 8.51L17.24 8.51L17.24 8.51Q17.04 8.57 16.83 8.70L16.83 8.70L16.83 8.70Q16.61 8.83 16.40 9.05L16.40 9.05L16.40 9.05Q16.19 9.27 16.03 9.61L16.03 9.61L16.03 9.61Q16.13 9.56 16.20 9.53L16.20 9.53L16.20 9.53Q16.27 9.50 16.30 9.50L16.30 9.50L16.30 9.50Q16.31 9.50 16.34 9.52L16.34 9.52L16.34 9.52Q16.50 9.79 16.73 9.90L16.73 9.90L16.73 9.90Q16.97 10.01 17.26 10.01L17.26 10.01L17.26 10.01Q17.49 10.01 17.66 9.94L17.66 9.94L17.66 9.94Q17.83 9.86 17.94 9.73L17.94 9.73L17.94 9.73Q18.05 9.61 18.09 9.46L18.09 9.46L18.09 9.46Q18.14 9.32 18.14 9.17L18.14 9.17L18.14 9.17Q18.14 8.87 17.99 8.66L17.99 8.66L17.99 8.66Q17.83 8.46 17.55 8.46ZM22.44 5.46L22.44 5.46L22.44 5.46Q22.44 5.50 22.42 5.68L22.42 5.68L22.42 5.68Q22.41 5.85 22.38 6.14L22.38 6.14L22.38 6.14Q22.36 6.43 22.33 6.81L22.33 6.81L22.33 6.81Q22.29 7.18 22.26 7.62L22.26 7.62L22.26 7.62Q22.69 7.57 23.07 7.54L23.07 7.54L23.07 7.54Q23.46 7.51 23.73 7.51L23.73 7.51L23.73 7.51Q23.82 7.51 23.88 7.54L23.88 7.54L23.88 7.54Q23.95 7.57 24.00 7.62L24.00 7.62L24.00 7.62Q24.04 7.66 24.07 7.71L24.07 7.71L24.07 7.71Q24.10 7.77 24.10 7.80L24.10 7.80L24.10 7.80Q24.10 7.83 24.11 7.86L24.11 7.86L24.11 7.86Q24.12 7.90 24.12 7.93L24.12 7.93L24.12 7.93Q24.12 8.07 24.00 8.20L24.00 8.20L24.00 8.20Q23.88 8.34 23.64 8.37L23.64 8.37L22.18 8.53L22.18 8.53Q22.15 9.02 22.12 9.54L22.12 9.54L22.12 9.54Q22.09 10.06 22.07 10.58L22.07 10.58L22.07 10.58Q22.05 11.09 22.03 11.59L22.03 11.59L22.03 11.59Q22.02 12.09 22.02 12.54L22.02 12.54L22.02 12.54Q22.02 12.82 22.03 13.00L22.03 13.00L22.03 13.00Q22.05 13.18 22.05 13.23L22.05 13.23L22.05 13.23Q22.05 13.35 22.00 13.46L22.00 13.46L22.00 13.46Q21.96 13.58 21.90 13.67L21.90 13.67L21.90 13.67Q21.84 13.76 21.78 13.82L21.78 13.82L21.78 13.82Q21.71 13.88 21.67 13.88L21.67 13.88L21.67 13.88Q21.42 13.88 21.28 13.72L21.28 13.72L21.28 13.72Q21.14 13.57 21.06 13.31L21.06 13.31L21.06 13.31Q20.99 13.05 20.97 12.71L20.97 12.71L20.97 12.71Q20.95 12.38 20.95 12.02L20.95 12.02L20.95 12.02Q20.95 11.16 21 10.31L21 10.31L21 10.31Q21.05 9.45 21.14 8.65L21.14 8.65L20.28 8.76L20.28 8.76Q20.26 8.76 20.24 8.76L20.24 8.76L20.24 8.76Q20.22 8.77 20.19 8.77L20.19 8.77L20.19 8.77Q20.06 8.77 19.98 8.71L19.98 8.71L19.98 8.71Q19.91 8.65 19.87 8.57L19.87 8.57L19.87 8.57Q19.82 8.48 19.81 8.40L19.81 8.40L19.81 8.40Q19.80 8.31 19.80 8.26L19.80 8.26L19.80 8.26Q19.80 8.17 19.83 8.09L19.83 8.09L19.83 8.09Q19.86 8.00 19.93 7.98L19.93 7.98L19.93 7.98Q20.08 7.93 20.44 7.86L20.44 7.86L20.44 7.86Q20.79 7.80 21.25 7.73L21.25 7.73L21.25 7.73Q21.32 7.18 21.40 6.72L21.40 6.72L21.40 6.72Q21.48 6.25 21.55 5.92L21.55 5.92L21.55 5.92Q21.63 5.58 21.69 5.39L21.69 5.39L21.69 5.39Q21.76 5.20 21.81 5.20L21.81 5.20L21.81 5.20Q21.82 5.20 21.84 5.21L21.84 5.21L21.84 5.21Q21.86 5.22 21.88 5.22L21.88 5.22L21.88 5.22Q21.92 5.22 21.94 5.17L21.94 5.17L21.94 5.17Q21.96 5.13 22.03 5.13L22.03 5.13L22.03 5.13Q22.09 5.13 22.17 5.16L22.17 5.16L22.17 5.16Q22.24 5.20 22.30 5.26L22.30 5.26L22.30 5.26Q22.35 5.31 22.39 5.37L22.39 5.37L22.39 5.37Q22.44 5.43 22.44 5.46ZM28.40 11.01L28.40 11.01L28.40 11.01Q28.40 11.08 28.41 11.18L28.41 11.18L28.41 11.18Q28.42 11.29 28.42 11.42L28.42 11.42L28.42 11.42Q28.42 11.58 28.37 11.82L28.37 11.82L28.37 11.82Q28.32 12.07 28.22 12.33L28.22 12.33L28.22 12.33Q28.11 12.60 27.93 12.87L27.93 12.87L27.93 12.87Q27.75 13.13 27.49 13.34L27.49 13.34L27.49 13.34Q27.23 13.56 26.88 13.69L26.88 13.69L26.88 13.69Q26.53 13.82 26.08 13.82L26.08 13.82L26.08 13.82Q25.68 13.82 25.26 13.67L25.26 13.67L25.26 13.67Q24.83 13.51 24.49 13.19L24.49 13.19L24.49 13.19Q24.14 12.87 23.92 12.36L23.92 12.36L23.92 12.36Q23.70 11.86 23.70 11.16L23.70 11.16L23.70 11.16Q23.70 10.73 23.81 10.30L23.81 10.30L23.81 10.30Q23.93 9.88 24.11 9.50L24.11 9.50L24.11 9.50Q24.30 9.13 24.56 8.81L24.56 8.81L24.56 8.81Q24.81 8.49 25.10 8.26L25.10 8.26L25.10 8.26Q25.38 8.03 25.69 7.90L25.69 7.90L25.69 7.90Q25.99 7.77 26.28 7.77L26.28 7.77L26.28 7.77Q26.78 7.77 27.10 7.93L27.10 7.93L27.10 7.93Q27.43 8.09 27.62 8.32L27.62 8.32L27.62 8.32Q27.81 8.55 27.89 8.81L27.89 8.81L27.89 8.81Q27.97 9.08 27.97 9.29L27.97 9.29L27.97 9.29Q27.97 9.50 27.87 9.76L27.87 9.76L27.87 9.76Q27.77 10.02 27.54 10.26L27.54 10.26L27.54 10.26Q27.32 10.49 26.95 10.65L26.95 10.65L26.95 10.65Q26.59 10.81 26.07 10.81L26.07 10.81L26.07 10.81Q25.79 10.81 25.56 10.74L25.56 10.74L25.56 10.74Q25.34 10.66 25.17 10.54L25.17 10.54L25.17 10.54Q25.00 10.42 24.88 10.28L24.88 10.28L24.88 10.28Q24.76 10.14 24.68 10.01L24.68 10.01L24.68 10.01Q24.55 10.44 24.55 11.01L24.55 11.01L24.55 11.01Q24.55 11.40 24.67 11.71L24.67 11.71L24.67 11.71Q24.78 12.02 24.98 12.24L24.98 12.24L24.98 12.24Q25.18 12.46 25.45 12.57L25.45 12.57L25.45 12.57Q25.72 12.69 26.05 12.69L26.05 12.69L26.05 12.69Q26.46 12.69 26.77 12.55L26.77 12.55L26.77 12.55Q27.08 12.41 27.31 12.20L27.31 12.20L27.31 12.20Q27.54 11.98 27.70 11.73L27.70 11.73L27.70 11.73Q27.87 11.48 27.99 11.28L27.99 11.28L27.99 11.28Q28.12 11.07 28.21 10.93L28.21 10.93L28.21 10.93Q28.30 10.79 28.39 10.80L28.39 10.80L28.39 10.80Q28.43 10.80 28.43 10.87L28.43 10.87L28.43 10.87Q28.43 10.90 28.42 10.94L28.42 10.94L28.42 10.94Q28.42 10.97 28.40 11.01ZM26.35 8.46L26.35 8.46L26.35 8.46Q26.22 8.46 26.03 8.51L26.03 8.51L26.03 8.51Q25.83 8.57 25.62 8.70L25.62 8.70L25.62 8.70Q25.40 8.83 25.19 9.05L25.19 9.05L25.19 9.05Q24.98 9.27 24.82 9.61L24.82 9.61L24.82 9.61Q24.92 9.56 24.99 9.53L24.99 9.53L24.99 9.53Q25.06 9.50 25.09 9.50L25.09 9.50L25.09 9.50Q25.10 9.50 25.13 9.52L25.13 9.52L25.13 9.52Q25.29 9.79 25.52 9.90L25.52 9.90L25.52 9.90Q25.76 10.01 26.05 10.01L26.05 10.01L26.05 10.01Q26.28 10.01 26.45 9.94L26.45 9.94L26.45 9.94Q26.62 9.86 26.73 9.73L26.73 9.73L26.73 9.73Q26.84 9.61 26.89 9.46L26.89 9.46L26.89 9.46Q26.93 9.32 26.93 9.17L26.93 9.17L26.93 9.17Q26.93 8.87 26.78 8.66L26.78 8.66L26.78 8.66Q26.62 8.46 26.35 8.46ZM32.64 8.59L32.64 8.59L32.64 8.59Q32.63 8.78 32.60 8.98L32.60 8.98L32.60 8.98Q32.57 9.17 32.52 9.35L32.52 9.35L32.52 9.35Q32.46 9.52 32.39 9.66L32.39 9.66L32.39 9.66Q32.31 9.80 32.21 9.88L32.21 9.88L32.21 9.88Q32.13 9.95 32.08 9.95L32.08 9.95L32.08 9.95Q32.03 9.95 32.00 9.92L32.00 9.92L32.00 9.92Q31.97 9.89 31.95 9.86L31.95 9.86L31.95 9.86Q31.93 9.82 31.90 9.82L31.90 9.82L31.90 9.82Q31.87 9.81 31.82 9.82L31.82 9.82L31.82 9.82Q31.78 9.83 31.74 9.82L31.74 9.82L31.74 9.82Q31.69 9.82 31.65 9.77L31.65 9.77L31.65 9.77Q31.62 9.73 31.60 9.61L31.60 9.61L31.60 9.61Q31.59 9.48 31.61 9.27L31.61 9.27L31.61 9.27Q31.64 9.06 31.64 8.87L31.64 8.87L31.64 8.87Q31.64 8.69 31.60 8.57L31.60 8.57L31.60 8.57Q31.56 8.45 31.47 8.45L31.47 8.45L31.47 8.45Q31.42 8.45 31.30 8.52L31.30 8.52L31.30 8.52Q31.18 8.59 31.04 8.83L31.04 8.83L31.04 8.83Q30.89 9.06 30.75 9.50L30.75 9.50L30.75 9.50Q30.60 9.94 30.52 10.67L30.52 10.67L30.52 10.67Q30.52 11.61 30.53 12.19L30.53 12.19L30.53 12.19Q30.54 12.76 30.54 13.08L30.54 13.08L30.54 13.08Q30.54 13.36 30.53 13.47L30.53 13.47L30.53 13.47Q30.52 13.59 30.46 13.62L30.46 13.62L30.46 13.62Q30.43 13.64 30.33 13.68L30.33 13.68L30.33 13.68Q30.23 13.71 30.12 13.73L30.12 13.73L30.12 13.73Q30.00 13.76 29.90 13.78L29.90 13.78L29.90 13.78Q29.80 13.80 29.77 13.79L29.77 13.79L29.77 13.79Q29.75 13.79 29.70 13.75L29.70 13.75L29.70 13.75Q29.64 13.71 29.58 13.66L29.58 13.66L29.58 13.66Q29.52 13.60 29.48 13.55L29.48 13.55L29.48 13.55Q29.43 13.49 29.42 13.45L29.42 13.45L29.42 13.45Q29.41 13.38 29.41 13.14L29.41 13.14L29.41 13.14Q29.42 12.89 29.42 12.55L29.42 12.55L29.42 12.55Q29.42 12.21 29.43 11.80L29.43 11.80L29.43 11.80Q29.44 11.40 29.44 10.99L29.44 10.99L29.44 10.99Q29.44 10.73 29.45 10.41L29.45 10.41L29.45 10.41Q29.47 10.10 29.49 9.77L29.49 9.77L29.49 9.77Q29.52 9.44 29.54 9.13L29.54 9.13L29.54 9.13Q29.57 8.81 29.60 8.56L29.60 8.56L29.60 8.56Q29.62 8.31 29.64 8.15L29.64 8.15L29.64 8.15Q29.65 7.98 29.66 7.94L29.66 7.94L29.66 7.94Q29.67 7.89 29.71 7.90L29.71 7.90L29.71 7.90Q29.76 7.92 29.81 7.95L29.81 7.95L29.81 7.95Q29.86 7.98 29.90 8.01L29.90 8.01L29.90 8.01Q29.94 8.04 29.96 8.01L29.96 8.01L29.96 8.01Q29.97 7.95 30.06 7.99L30.06 7.99L30.06 7.99Q30.15 8.04 30.22 8.09L30.22 8.09L30.22 8.09Q30.25 8.13 30.29 8.15L30.29 8.15L30.29 8.15Q30.32 8.18 30.36 8.21L30.36 8.21L30.36 8.21Q30.39 8.25 30.42 8.31L30.42 8.31L30.42 8.31Q30.44 8.37 30.44 8.48L30.44 8.48L30.44 8.48Q30.44 8.57 30.45 8.76L30.45 8.76L30.45 8.76Q30.47 8.96 30.49 9.21L30.49 9.21L30.49 9.21Q30.56 8.97 30.67 8.70L30.67 8.70L30.67 8.70Q30.78 8.42 30.93 8.19L30.93 8.19L30.93 8.19Q31.08 7.96 31.28 7.81L31.28 7.81L31.28 7.81Q31.49 7.66 31.77 7.66L31.77 7.66L31.77 7.66Q31.93 7.66 32.09 7.72L32.09 7.72L32.09 7.72Q32.25 7.79 32.37 7.91L32.37 7.91L32.37 7.91Q32.50 8.03 32.57 8.20L32.57 8.20L32.57 8.20Q32.65 8.37 32.64 8.59Z"></path></g><!----><!----></svg>