<svg data-v-423bf9ae="" xmlns="http://www.w3.org/2000/svg" viewBox="0 0 383 91" class="iconLeft"><!----><!----><!----><g data-v-423bf9ae="" id="94028418-31a1-4e11-99ee-11a96d273f65" fill="#D72C6B" transform="matrix(4.065040587370328,0,0,4.065040587370328,131.11471968047306,4.065041064207492)"><path d="M2.83 13.64L1.49 13.64L1.49 3.63L7.36 3.63L7.16 4.69L2.83 4.69L2.83 7.89L6.69 7.89L6.48 8.95L2.83 8.95L2.83 13.64ZM9.24 13.64L9.24 2.69L10.54 2.69L10.54 13.64L9.24 13.64ZM18.66 12.29L18.66 13.03L18.66 13.03Q18.40 13.21 18.06 13.35L18.06 13.35L18.06 13.35Q17.73 13.49 17.36 13.59L17.36 13.59L17.36 13.59Q17.00 13.69 16.64 13.73L16.64 13.73L16.64 13.73Q16.27 13.78 15.96 13.78L15.96 13.78L15.96 13.78Q15.26 13.78 14.63 13.55L14.63 13.55L14.63 13.55Q14 13.32 13.53 12.87L13.53 12.87L13.53 12.87Q13.06 12.41 12.78 11.75L12.78 11.75L12.78 11.75Q12.50 11.08 12.50 10.21L12.50 10.21L12.50 10.21Q12.50 9.32 12.79 8.59L12.79 8.59L12.79 8.59Q13.09 7.85 13.59 7.34L13.59 7.34L13.59 7.34Q14.09 6.82 14.74 6.54L14.74 6.54L14.74 6.54Q15.39 6.26 16.11 6.26L16.11 6.26L16.11 6.26Q16.69 6.26 17.20 6.46L17.20 6.46L17.20 6.46Q17.70 6.65 18.07 7.04L18.07 7.04L18.07 7.04Q18.44 7.43 18.66 8.02L18.66 8.02L18.66 8.02Q18.87 8.60 18.87 9.38L18.87 9.38L18.87 9.38Q18.87 9.54 18.85 9.75L18.85 9.75L18.85 9.75Q18.84 9.97 18.80 10.21L18.80 10.21L13.85 10.21L13.85 10.21Q13.85 10.80 14.06 11.26L14.06 11.26L14.06 11.26Q14.27 11.72 14.65 12.04L14.65 12.04L14.65 12.04Q15.03 12.36 15.55 12.52L15.55 12.52L15.55 12.52Q16.08 12.69 16.71 12.69L16.71 12.69L16.71 12.69Q16.87 12.69 17.10 12.67L17.10 12.67L17.10 12.67Q17.32 12.66 17.58 12.62L17.58 12.62L17.58 12.62Q17.84 12.58 18.12 12.50L18.12 12.50L18.12 12.50Q18.40 12.42 18.66 12.29L18.66 12.29ZM13.85 9.41L17.64 9.41L17.64 9.41Q17.64 8.89 17.49 8.50L17.49 8.50L17.49 8.50Q17.35 8.11 17.10 7.84L17.10 7.84L17.10 7.84Q16.86 7.57 16.53 7.44L16.53 7.44L16.53 7.44Q16.21 7.30 15.84 7.30L15.84 7.30L15.84 7.30Q15.43 7.30 15.07 7.47L15.07 7.47L15.07 7.47Q14.70 7.64 14.43 7.92L14.43 7.92L14.43 7.92Q14.16 8.21 14.01 8.59L14.01 8.59L14.01 8.59Q13.85 8.98 13.85 9.41L13.85 9.41ZM26.61 12.29L26.61 13.03L26.61 13.03Q26.35 13.21 26.01 13.35L26.01 13.35L26.01 13.35Q25.67 13.49 25.31 13.59L25.31 13.59L25.31 13.59Q24.94 13.69 24.58 13.73L24.58 13.73L24.58 13.73Q24.21 13.78 23.90 13.78L23.90 13.78L23.90 13.78Q23.20 13.78 22.57 13.55L22.57 13.55L22.57 13.55Q21.94 13.32 21.47 12.87L21.47 12.87L21.47 12.87Q21 12.41 20.72 11.75L20.72 11.75L20.72 11.75Q20.44 11.08 20.44 10.21L20.44 10.21L20.44 10.21Q20.44 9.32 20.74 8.59L20.74 8.59L20.74 8.59Q21.03 7.85 21.53 7.34L21.53 7.34L21.53 7.34Q22.03 6.82 22.69 6.54L22.69 6.54L22.69 6.54Q23.34 6.26 24.06 6.26L24.06 6.26L24.06 6.26Q24.64 6.26 25.14 6.46L25.14 6.46L25.14 6.46Q25.64 6.65 26.01 7.04L26.01 7.04L26.01 7.04Q26.39 7.43 26.60 8.02L26.60 8.02L26.60 8.02Q26.81 8.60 26.81 9.38L26.81 9.38L26.81 9.38Q26.81 9.54 26.80 9.75L26.80 9.75L26.80 9.75Q26.78 9.97 26.74 10.21L26.74 10.21L21.79 10.21L21.79 10.21Q21.79 10.80 22.00 11.26L22.00 11.26L22.00 11.26Q22.21 11.72 22.59 12.04L22.59 12.04L22.59 12.04Q22.97 12.36 23.50 12.52L23.50 12.52L23.50 12.52Q24.02 12.69 24.66 12.69L24.66 12.69L24.66 12.69Q24.81 12.69 25.04 12.67L25.04 12.67L25.04 12.67Q25.27 12.66 25.53 12.62L25.53 12.62L25.53 12.62Q25.79 12.58 26.07 12.50L26.07 12.50L26.07 12.50Q26.35 12.42 26.61 12.29L26.61 12.29ZM21.79 9.41L25.58 9.41L25.58 9.41Q25.58 8.89 25.44 8.50L25.44 8.50L25.44 8.50Q25.29 8.11 25.05 7.84L25.05 7.84L25.05 7.84Q24.80 7.57 24.48 7.44L24.48 7.44L24.48 7.44Q24.15 7.30 23.78 7.30L23.78 7.30L23.78 7.30Q23.37 7.30 23.01 7.47L23.01 7.47L23.01 7.47Q22.65 7.64 22.38 7.92L22.38 7.92L22.38 7.92Q22.11 8.21 21.95 8.59L21.95 8.59L21.95 8.59Q21.79 8.98 21.79 9.41L21.79 9.41ZM29.47 11.83L29.47 7.44L28.01 7.44L28.12 6.77L28.12 6.77Q28.65 6.66 28.97 6.49L28.97 6.49L28.97 6.49Q29.29 6.32 29.50 6.07L29.50 6.07L29.50 6.07Q29.71 5.82 29.85 5.46L29.85 5.46L29.85 5.46Q29.99 5.10 30.17 4.60L30.17 4.60L30.77 4.60L30.77 6.40L33.39 6.40L33.12 7.44L30.77 7.44L30.77 11.48L30.77 11.48Q30.77 11.81 30.87 12.04L30.87 12.04L30.87 12.04Q30.97 12.27 31.14 12.41L31.14 12.41L31.14 12.41Q31.32 12.56 31.58 12.62L31.58 12.62L31.58 12.62Q31.83 12.69 32.14 12.69L32.14 12.69L32.14 12.69Q32.45 12.69 32.76 12.63L32.76 12.63L32.76 12.63Q33.07 12.57 33.35 12.47L33.35 12.47L33.35 13.21L33.35 13.21Q32.92 13.49 32.45 13.63L32.45 13.63L32.45 13.63Q31.97 13.78 31.48 13.78L31.48 13.78L31.48 13.78Q31.02 13.78 30.65 13.65L30.65 13.65L30.65 13.65Q30.28 13.52 30.02 13.28L30.02 13.28L30.02 13.28Q29.76 13.03 29.61 12.66L29.61 12.66L29.61 12.66Q29.47 12.30 29.47 11.83L29.47 11.83ZM36.52 13.64L35.33 13.64L36.09 3.63L38.10 3.63L40.57 10.62L40.95 11.93L41.09 11.93L41.47 10.62L43.95 3.63L45.96 3.63L46.72 13.64L45.40 13.64L44.87 5.78L44.82 4.35L44.69 4.35L44.29 5.71L41.58 13.44L40.37 13.44L37.64 5.73L37.23 4.35L37.10 4.35L37.06 5.77L36.52 13.64ZM52.65 14.05L50.96 14.05L50.96 14.05Q50.78 14.14 50.58 14.27L50.58 14.27L50.58 14.27Q50.38 14.40 50.21 14.56L50.21 14.56L50.21 14.56Q50.04 14.72 49.92 14.92L49.92 14.92L49.92 14.92Q49.81 15.11 49.81 15.33L49.81 15.33L49.81 15.33Q49.81 15.54 49.94 15.74L49.94 15.74L49.94 15.74Q50.07 15.93 50.33 16.08L50.33 16.08L50.33 16.08Q50.59 16.22 50.96 16.31L50.96 16.31L50.96 16.31Q51.34 16.39 51.82 16.39L51.82 16.39L51.82 16.39Q52.38 16.39 52.81 16.28L52.81 16.28L52.81 16.28Q53.25 16.17 53.55 15.98L53.55 15.98L53.55 15.98Q53.85 15.79 54.01 15.54L54.01 15.54L54.01 15.54Q54.17 15.29 54.17 15.01L54.17 15.01L54.17 15.01Q54.17 14.76 54.04 14.58L54.04 14.58L54.04 14.58Q53.92 14.40 53.71 14.28L53.71 14.28L53.71 14.28Q53.50 14.16 53.23 14.11L53.23 14.11L53.23 14.11Q52.95 14.05 52.65 14.05L52.65 14.05ZM50.03 13.92L50.03 13.92L50.03 13.92Q49.81 13.85 49.63 13.75L49.63 13.75L49.63 13.75Q49.44 13.64 49.31 13.52L49.31 13.52L49.31 13.52Q49.17 13.39 49.09 13.23L49.09 13.23L49.09 13.23Q49.01 13.07 49.01 12.89L49.01 12.89L49.01 12.89Q49.01 12.66 49.13 12.46L49.13 12.46L49.13 12.46Q49.24 12.26 49.42 12.07L49.42 12.07L49.42 12.07Q49.60 11.88 49.83 11.71L49.83 11.71L49.83 11.71Q50.06 11.55 50.30 11.39L50.30 11.39L50.30 11.39Q49.54 11.02 49.19 10.42L49.19 10.42L49.19 10.42Q48.84 9.82 48.84 9.11L48.84 9.11L48.84 9.11Q48.84 8.67 48.96 8.29L48.96 8.29L48.96 8.29Q49.09 7.91 49.31 7.59L49.31 7.59L49.31 7.59Q49.54 7.27 49.84 7.03L49.84 7.03L49.84 7.03Q50.14 6.78 50.49 6.61L50.49 6.61L50.49 6.61Q50.84 6.44 51.22 6.35L51.22 6.35L51.22 6.35Q51.60 6.26 51.97 6.26L51.97 6.26L51.97 6.26Q52.42 6.26 52.85 6.38L52.85 6.38L52.85 6.38Q53.27 6.49 53.56 6.68L53.56 6.68L53.56 6.68Q53.67 6.62 53.83 6.56L53.83 6.56L53.83 6.56Q53.99 6.51 54.17 6.47L54.17 6.47L54.17 6.47Q54.35 6.44 54.53 6.42L54.53 6.42L54.53 6.42Q54.71 6.40 54.87 6.40L54.87 6.40L56.10 6.40L55.82 7.42L54.21 7.42L54.21 7.42Q54.26 7.45 54.35 7.58L54.35 7.58L54.35 7.58Q54.44 7.70 54.53 7.91L54.53 7.91L54.53 7.91Q54.63 8.11 54.70 8.37L54.70 8.37L54.70 8.37Q54.77 8.64 54.77 8.94L54.77 8.94L54.77 8.94Q54.77 9.50 54.51 9.98L54.51 9.98L54.51 9.98Q54.24 10.47 53.82 10.83L53.82 10.83L53.82 10.83Q53.39 11.20 52.84 11.41L52.84 11.41L52.84 11.41Q52.29 11.62 51.71 11.62L51.71 11.62L51.71 11.62Q51.56 11.62 51.41 11.61L51.41 11.61L51.41 11.61Q51.26 11.59 51.09 11.57L51.09 11.57L51.09 11.57Q50.97 11.65 50.83 11.74L50.83 11.74L50.83 11.74Q50.69 11.84 50.58 11.95L50.58 11.95L50.58 11.95Q50.46 12.07 50.39 12.19L50.39 12.19L50.39 12.19Q50.31 12.32 50.31 12.46L50.31 12.46L50.31 12.46Q50.31 12.67 50.51 12.81L50.51 12.81L50.51 12.81Q50.72 12.95 51.06 12.95L51.06 12.95L53.00 12.95L53.00 12.95Q53.49 12.95 53.93 13.07L53.93 13.07L53.93 13.07Q54.37 13.20 54.69 13.44L54.69 13.44L54.69 13.44Q55.02 13.67 55.21 14L55.21 14L55.21 14Q55.40 14.33 55.40 14.72L55.40 14.72L55.40 14.72Q55.40 15.19 55.13 15.67L55.13 15.67L55.13 15.67Q54.87 16.15 54.36 16.55L54.36 16.55L54.36 16.55Q53.85 16.95 53.12 17.20L53.12 17.20L53.12 17.20Q52.38 17.45 51.44 17.45L51.44 17.45L51.44 17.45Q50.82 17.45 50.28 17.33L50.28 17.33L50.28 17.33Q49.75 17.21 49.35 17.00L49.35 17.00L49.35 17.00Q48.96 16.79 48.73 16.49L48.73 16.49L48.73 16.49Q48.51 16.19 48.51 15.82L48.51 15.82L48.51 15.82Q48.51 15.59 48.59 15.38L48.59 15.38L48.59 15.38Q48.68 15.17 48.81 14.98L48.81 14.98L48.81 14.98Q48.95 14.80 49.11 14.64L49.11 14.64L49.11 14.64Q49.28 14.47 49.45 14.34L49.45 14.34L49.45 14.34Q49.62 14.21 49.77 14.10L49.77 14.10L49.77 14.10Q49.92 13.99 50.03 13.92ZM50.07 8.90L50.07 8.90L50.07 8.90Q50.07 9.27 50.20 9.59L50.20 9.59L50.20 9.59Q50.33 9.91 50.56 10.15L50.56 10.15L50.56 10.15Q50.78 10.38 51.11 10.52L51.11 10.52L51.11 10.52Q51.43 10.65 51.81 10.65L51.81 10.65L51.81 10.65Q52.17 10.65 52.49 10.53L52.49 10.53L52.49 10.53Q52.80 10.40 53.04 10.19L53.04 10.19L53.04 10.19Q53.27 9.97 53.41 9.66L53.41 9.66L53.41 9.66Q53.54 9.34 53.54 8.96L53.54 8.96L53.54 8.96Q53.54 8.59 53.41 8.27L53.41 8.27L53.41 8.27Q53.28 7.96 53.05 7.73L53.05 7.73L53.05 7.73Q52.81 7.50 52.49 7.37L52.49 7.37L52.49 7.37Q52.17 7.23 51.79 7.23L51.79 7.23L51.79 7.23Q51.43 7.23 51.12 7.35L51.12 7.35L51.12 7.35Q50.80 7.47 50.57 7.69L50.57 7.69L50.57 7.69Q50.33 7.90 50.20 8.21L50.20 8.21L50.20 8.21Q50.07 8.52 50.07 8.90ZM57.50 13.64L57.50 6.40L58.52 6.40L58.72 8.57L58.72 8.57Q58.81 8.40 58.91 8.22L58.91 8.22L58.91 8.22Q59.01 8.04 59.11 7.87L59.11 7.87L59.11 7.87Q59.21 7.70 59.30 7.55L59.30 7.55L59.30 7.55Q59.40 7.40 59.47 7.29L59.47 7.29L59.47 7.29Q59.62 7.08 59.81 6.89L59.81 6.89L59.81 6.89Q60.00 6.70 60.22 6.56L60.22 6.56L60.22 6.56Q60.44 6.42 60.68 6.34L60.68 6.34L60.68 6.34Q60.93 6.26 61.21 6.26L61.21 6.26L61.21 6.26Q61.41 6.26 61.58 6.31L61.58 6.31L61.58 6.31Q61.76 6.35 61.88 6.45L61.88 6.45L61.74 7.67L61.74 7.67Q61.62 7.64 61.50 7.63L61.50 7.63L61.50 7.63Q61.38 7.62 61.26 7.62L61.26 7.62L61.26 7.62Q60.78 7.62 60.42 7.77L60.42 7.77L60.42 7.77Q60.06 7.93 59.78 8.20L59.78 8.20L59.78 8.20Q59.49 8.47 59.26 8.83L59.26 8.83L59.26 8.83Q59.04 9.19 58.80 9.61L58.80 9.61L58.80 13.64L57.50 13.64Z"></path></g><!----><g data-v-423bf9ae="" id="5a0c7bc2-48f4-462d-9e83-2eb05def1c76" transform="matrix(1.213584806898593,0,0,1.213584806898593,-1.9510408470833909,-14.759515517734712)" stroke="none" fill="#D72C6B"><path d="M49.5 21.13H37.62a8.62 8.62 0 0 0-6.89 3.51c-.13.13-.26.39-.39.52l-10 15.09-7.05 1A8.44 8.44 0 0 0 6 49.62V62a4.91 4.91 0 0 0-4.29 4.81v6.09a4.8 4.8 0 0 0 4.81 4.81h6A13 13 0 0 0 25 87.08a12.88 12.88 0 0 0 12.49-9.37H57a13 13 0 0 0 12.5 9.37A12.88 12.88 0 0 0 82 77.71h6.89a4.8 4.8 0 0 0 4.81-4.81v-9.21A4.88 4.88 0 0 0 90.05 59v-.09H56a3.7 3.7 0 0 1-3.7-3.7V23.92a2.79 2.79 0 0 0-2.8-2.79zM25 80.58a6.61 6.61 0 0 1-6.5-6.5 6.52 6.52 0 0 1 6.5-6.5 6.61 6.61 0 0 1 6.5 6.5 6.52 6.52 0 0 1-6.5 6.5zm44.48-13a6.61 6.61 0 0 1 6.5 6.5 6.5 6.5 0 1 1-6.5-6.5zm28.78-16.17V15.73a2.81 2.81 0 0 0-2.81-2.81H59.77A2.81 2.81 0 0 0 57 15.73v35.68a2.81 2.81 0 0 0 2.81 2.81h35.64a2.81 2.81 0 0 0 2.81-2.81zm-8-5.19H65v-25.3h25.26z"></path></g><!----></svg>